# xmcd
#
# Track frame offsets:
#	150
#	15504
#	28852
#	47735
#	61584
#	73922
#	89374
#	102643
#	114099
#	133632
#	145342
#
# Disc length: 2127 seconds
#
# Revision: 0
# Processed by: cddbd v1.5.2PL0 Copyright (c) Steve Scherf et al.
# Submitted via: audiograbber 1.83.01
#
DISCID=95084d0b
DTITLE=Sofie Reed - Red Hen
DYEAR=2014
DGENRE=Blues
TTITLE0=Red Hen
TTITLE1=Let's Be Friends
TTITLE2=How You Flow
TTITLE3=When The Saints Go Marching In
TTITLE4=Somliga Går Med Trasiga Skor
TTITLE5=One Day
TTITLE6=Real Time
TTITLE7=Down By The Riverside
TTITLE8=Vem Kan Segla Förutan Vind
TTITLE9=These Blues
TTITLE10=Dragonfly Goodbye
EXTD=
EXTT0=
EXTT1=
EXTT2=
EXTT3=
EXTT4=
EXTT5=
EXTT6=
EXTT7=
EXTT8=
EXTT9=
EXTT10=
PLAYORDER=
